# xmcd
#
# Track frame offsets: 
#        150
#        13357
#        26229
#        43929
#        62356
#        80568
#        94176
#        109090
#        123752
#        136802
#        153140
#        166737
#        196006
#
# Disc length: 4159 seconds
#
# Revision: 2
# Processed by: cddbd v1.5.2PL0 Copyright (c) Steve Scherf et al.
# Submitted via: ExactAudioCopy v0.99pb4
#
DISCID=9e103d0d
DTITLE=Bastard Sons of Johnny Cash - Distance Between
DYEAR=2002
DGENRE=Country
TTITLE0=1970 Monte Carlo
TTITLE1=Hard Times
TTITLE2=Distance Between
TTITLE3=Long Black Veil
TTITLE4=Burn Down
TTITLE5=Tears of Gold
TTITLE6=Wind it Up
TTITLE7=Marfa Lights
TTITLE8=Damage is Done
TTITLE9=Where I Found You
TTITLE10=Last Goodbye
TTITLE11=Beautiful Cage
TTITLE12=Lyrics Data File
EXTD=YEAR: 2002 ID3G:   2
EXTT0=
EXTT1=
EXTT2=
EXTT3=
EXTT4=
EXTT5=
EXTT6=
EXTT7=
EXTT8=
EXTT9=
EXTT10=
EXTT11=
EXTT12=
PLAYORDER=
